<mxfile host="app.diagrams.net" modified="2023-08-11T06:33:03.964Z" agent="Mozilla/5.0 (Macintosh; Intel Mac OS X 10_15_7) AppleWebKit/537.36 (KHTML, like Gecko) Chrome/114.0.0.0 Safari/537.36" etag="yywDGJq_JS05aPXlD-4j" version="21.6.6" type="github">
  <diagram name="Page-1" id="tiECHeyfkjVGIfnojf0j">
    <mxGraphModel dx="1834" dy="796" grid="0" gridSize="10" guides="1" tooltips="1" connect="1" arrows="1" fold="1" page="0" pageScale="1" pageWidth="827" pageHeight="1169" math="0" shadow="0">
      <root>
        <mxCell id="0" />
        <mxCell id="1" parent="0" />
        <mxCell id="netaxYqDcQG4w5ra4QfN-16" style="edgeStyle=orthogonalEdgeStyle;rounded=0;orthogonalLoop=1;jettySize=auto;html=1;entryX=1.006;entryY=0.058;entryDx=0;entryDy=0;entryPerimeter=0;" parent="1" source="netaxYqDcQG4w5ra4QfN-15" target="netaxYqDcQG4w5ra4QfN-4" edge="1">
          <mxGeometry relative="1" as="geometry" />
        </mxCell>
        <mxCell id="netaxYqDcQG4w5ra4QfN-15" value="" style="rounded=1;whiteSpace=wrap;html=1;" parent="1" vertex="1">
          <mxGeometry x="570" y="120" width="200" height="190" as="geometry" />
        </mxCell>
        <mxCell id="netaxYqDcQG4w5ra4QfN-1" value="DefaultSource" style="swimlane;fontStyle=1;align=center;verticalAlign=top;childLayout=stackLayout;horizontal=1;startSize=26;horizontalStack=0;resizeParent=1;resizeParentMax=0;resizeLast=0;collapsible=1;marginBottom=0;whiteSpace=wrap;html=1;" parent="1" vertex="1">
          <mxGeometry x="360" y="300" width="160" height="86" as="geometry">
            <mxRectangle x="290" y="150" width="120" height="30" as="alternateBounds" />
          </mxGeometry>
        </mxCell>
        <mxCell id="netaxYqDcQG4w5ra4QfN-2" value="-" style="text;strokeColor=none;fillColor=none;align=left;verticalAlign=top;spacingLeft=4;spacingRight=4;overflow=hidden;rotatable=0;points=[[0,0.5],[1,0.5]];portConstraint=eastwest;whiteSpace=wrap;html=1;" parent="netaxYqDcQG4w5ra4QfN-1" vertex="1">
          <mxGeometry y="26" width="160" height="26" as="geometry" />
        </mxCell>
        <mxCell id="netaxYqDcQG4w5ra4QfN-3" value="" style="line;strokeWidth=1;fillColor=none;align=left;verticalAlign=middle;spacingTop=-1;spacingLeft=3;spacingRight=3;rotatable=0;labelPosition=right;points=[];portConstraint=eastwest;strokeColor=inherit;" parent="netaxYqDcQG4w5ra4QfN-1" vertex="1">
          <mxGeometry y="52" width="160" height="8" as="geometry" />
        </mxCell>
        <mxCell id="netaxYqDcQG4w5ra4QfN-4" value="+ method(type): type" style="text;strokeColor=none;fillColor=none;align=left;verticalAlign=top;spacingLeft=4;spacingRight=4;overflow=hidden;rotatable=0;points=[[0,0.5],[1,0.5]];portConstraint=eastwest;whiteSpace=wrap;html=1;" parent="netaxYqDcQG4w5ra4QfN-1" vertex="1">
          <mxGeometry y="60" width="160" height="26" as="geometry" />
        </mxCell>
        <mxCell id="netaxYqDcQG4w5ra4QfN-12" style="edgeStyle=orthogonalEdgeStyle;rounded=0;orthogonalLoop=1;jettySize=auto;html=1;exitX=0.5;exitY=1;exitDx=0;exitDy=0;entryX=-0.006;entryY=0.942;entryDx=0;entryDy=0;entryPerimeter=0;" parent="1" source="netaxYqDcQG4w5ra4QfN-5" target="netaxYqDcQG4w5ra4QfN-2" edge="1">
          <mxGeometry relative="1" as="geometry" />
        </mxCell>
        <mxCell id="netaxYqDcQG4w5ra4QfN-5" value="«interface»&lt;br&gt;&lt;b&gt;RelationProvider&lt;/b&gt;" style="html=1;whiteSpace=wrap;" parent="1" vertex="1">
          <mxGeometry x="80" y="160" width="110" height="50" as="geometry" />
        </mxCell>
        <mxCell id="netaxYqDcQG4w5ra4QfN-13" style="edgeStyle=orthogonalEdgeStyle;rounded=0;orthogonalLoop=1;jettySize=auto;html=1;exitX=0.5;exitY=1;exitDx=0;exitDy=0;entryX=0.25;entryY=0;entryDx=0;entryDy=0;" parent="1" source="netaxYqDcQG4w5ra4QfN-6" target="netaxYqDcQG4w5ra4QfN-1" edge="1">
          <mxGeometry relative="1" as="geometry" />
        </mxCell>
        <mxCell id="netaxYqDcQG4w5ra4QfN-6" value="«interface»&lt;br&gt;&lt;b&gt;CreatableRelationProvider&lt;/b&gt;" style="html=1;whiteSpace=wrap;" parent="1" vertex="1">
          <mxGeometry x="200" y="160" width="176" height="50" as="geometry" />
        </mxCell>
        <mxCell id="netaxYqDcQG4w5ra4QfN-9" value="«interface»&lt;br&gt;&lt;b&gt;StreamSourceProvider&lt;/b&gt;" style="html=1;whiteSpace=wrap;" parent="1" vertex="1">
          <mxGeometry x="590" y="230" width="155" height="50" as="geometry" />
        </mxCell>
        <mxCell id="netaxYqDcQG4w5ra4QfN-10" value="«interface»&lt;br&gt;&lt;b&gt;StreamSinkProvider&lt;/b&gt;" style="html=1;whiteSpace=wrap;" parent="1" vertex="1">
          <mxGeometry x="590" y="160" width="150" height="50" as="geometry" />
        </mxCell>
        <mxCell id="netaxYqDcQG4w5ra4QfN-14" style="edgeStyle=orthogonalEdgeStyle;rounded=0;orthogonalLoop=1;jettySize=auto;html=1;exitX=0.5;exitY=1;exitDx=0;exitDy=0;entryX=0.656;entryY=0.006;entryDx=0;entryDy=0;entryPerimeter=0;" parent="1" source="netaxYqDcQG4w5ra4QfN-11" target="netaxYqDcQG4w5ra4QfN-1" edge="1">
          <mxGeometry relative="1" as="geometry" />
        </mxCell>
        <mxCell id="netaxYqDcQG4w5ra4QfN-11" value="«interface»&lt;br&gt;&lt;b&gt;DatasourceRegister&lt;/b&gt;" style="html=1;whiteSpace=wrap;" parent="1" vertex="1">
          <mxGeometry x="400" y="160" width="130" height="50" as="geometry" />
        </mxCell>
        <mxCell id="netaxYqDcQG4w5ra4QfN-17" value="HoodieBaseRelation" style="swimlane;fontStyle=1;align=center;verticalAlign=top;childLayout=stackLayout;horizontal=1;startSize=26;horizontalStack=0;resizeParent=1;resizeParentMax=0;resizeLast=0;collapsible=1;marginBottom=0;whiteSpace=wrap;html=1;" parent="1" vertex="1">
          <mxGeometry x="298" y="724" width="160" height="85" as="geometry" />
        </mxCell>
        <mxCell id="netaxYqDcQG4w5ra4QfN-18" value="+ field: type" style="text;strokeColor=none;fillColor=none;align=left;verticalAlign=top;spacingLeft=4;spacingRight=4;overflow=hidden;rotatable=0;points=[[0,0.5],[1,0.5]];portConstraint=eastwest;whiteSpace=wrap;html=1;" parent="netaxYqDcQG4w5ra4QfN-17" vertex="1">
          <mxGeometry y="26" width="160" height="26" as="geometry" />
        </mxCell>
        <mxCell id="netaxYqDcQG4w5ra4QfN-19" value="" style="line;strokeWidth=1;fillColor=none;align=left;verticalAlign=middle;spacingTop=-1;spacingLeft=3;spacingRight=3;rotatable=0;labelPosition=right;points=[];portConstraint=eastwest;strokeColor=inherit;" parent="netaxYqDcQG4w5ra4QfN-17" vertex="1">
          <mxGeometry y="52" width="160" height="8" as="geometry" />
        </mxCell>
        <mxCell id="netaxYqDcQG4w5ra4QfN-20" value="+ method(type): type" style="text;strokeColor=none;fillColor=none;align=left;verticalAlign=top;spacingLeft=4;spacingRight=4;overflow=hidden;rotatable=0;points=[[0,0.5],[1,0.5]];portConstraint=eastwest;whiteSpace=wrap;html=1;" parent="netaxYqDcQG4w5ra4QfN-17" vertex="1">
          <mxGeometry y="60" width="160" height="25" as="geometry" />
        </mxCell>
        <mxCell id="netaxYqDcQG4w5ra4QfN-24" style="edgeStyle=orthogonalEdgeStyle;rounded=0;orthogonalLoop=1;jettySize=auto;html=1;exitX=0.5;exitY=1;exitDx=0;exitDy=0;entryX=0;entryY=0.5;entryDx=0;entryDy=0;" parent="1" source="netaxYqDcQG4w5ra4QfN-21" target="netaxYqDcQG4w5ra4QfN-17" edge="1">
          <mxGeometry relative="1" as="geometry" />
        </mxCell>
        <mxCell id="netaxYqDcQG4w5ra4QfN-21" value="«interface»&lt;br&gt;&lt;b&gt;BaseRelation&lt;/b&gt;" style="html=1;whiteSpace=wrap;" parent="1" vertex="1">
          <mxGeometry x="131" y="619" width="110" height="50" as="geometry" />
        </mxCell>
        <mxCell id="netaxYqDcQG4w5ra4QfN-25" value="" style="edgeStyle=orthogonalEdgeStyle;rounded=0;orthogonalLoop=1;jettySize=auto;html=1;" parent="1" source="netaxYqDcQG4w5ra4QfN-22" edge="1">
          <mxGeometry relative="1" as="geometry">
            <mxPoint x="378" y="727" as="targetPoint" />
          </mxGeometry>
        </mxCell>
        <mxCell id="netaxYqDcQG4w5ra4QfN-22" value="«interface»&lt;br&gt;&lt;b&gt;FileRelation&lt;/b&gt;" style="html=1;whiteSpace=wrap;" parent="1" vertex="1">
          <mxGeometry x="323" y="621" width="110" height="48" as="geometry" />
        </mxCell>
        <mxCell id="netaxYqDcQG4w5ra4QfN-26" style="edgeStyle=orthogonalEdgeStyle;rounded=0;orthogonalLoop=1;jettySize=auto;html=1;entryX=1.013;entryY=1.058;entryDx=0;entryDy=0;entryPerimeter=0;" parent="1" source="netaxYqDcQG4w5ra4QfN-23" target="netaxYqDcQG4w5ra4QfN-18" edge="1">
          <mxGeometry relative="1" as="geometry" />
        </mxCell>
        <mxCell id="netaxYqDcQG4w5ra4QfN-23" value="«interface»&lt;br&gt;&lt;b&gt;PrunedFilterScan&lt;/b&gt;" style="html=1;whiteSpace=wrap;" parent="1" vertex="1">
          <mxGeometry x="505" y="621" width="110" height="50" as="geometry" />
        </mxCell>
        <mxCell id="netaxYqDcQG4w5ra4QfN-31" value="MergeOnReadRelation" style="swimlane;fontStyle=1;align=center;verticalAlign=top;childLayout=stackLayout;horizontal=1;startSize=26;horizontalStack=0;resizeParent=1;resizeParentMax=0;resizeLast=0;collapsible=1;marginBottom=0;whiteSpace=wrap;html=1;" parent="1" vertex="1">
          <mxGeometry x="122" y="889" width="160" height="86" as="geometry" />
        </mxCell>
        <mxCell id="netaxYqDcQG4w5ra4QfN-32" value="+ field: type" style="text;strokeColor=none;fillColor=none;align=left;verticalAlign=top;spacingLeft=4;spacingRight=4;overflow=hidden;rotatable=0;points=[[0,0.5],[1,0.5]];portConstraint=eastwest;whiteSpace=wrap;html=1;" parent="netaxYqDcQG4w5ra4QfN-31" vertex="1">
          <mxGeometry y="26" width="160" height="26" as="geometry" />
        </mxCell>
        <mxCell id="netaxYqDcQG4w5ra4QfN-33" value="" style="line;strokeWidth=1;fillColor=none;align=left;verticalAlign=middle;spacingTop=-1;spacingLeft=3;spacingRight=3;rotatable=0;labelPosition=right;points=[];portConstraint=eastwest;strokeColor=inherit;" parent="netaxYqDcQG4w5ra4QfN-31" vertex="1">
          <mxGeometry y="52" width="160" height="8" as="geometry" />
        </mxCell>
        <mxCell id="netaxYqDcQG4w5ra4QfN-34" value="+ method(type): type" style="text;strokeColor=none;fillColor=none;align=left;verticalAlign=top;spacingLeft=4;spacingRight=4;overflow=hidden;rotatable=0;points=[[0,0.5],[1,0.5]];portConstraint=eastwest;whiteSpace=wrap;html=1;" parent="netaxYqDcQG4w5ra4QfN-31" vertex="1">
          <mxGeometry y="60" width="160" height="26" as="geometry" />
        </mxCell>
        <mxCell id="netaxYqDcQG4w5ra4QfN-35" value="COWRelation" style="swimlane;fontStyle=1;align=center;verticalAlign=top;childLayout=stackLayout;horizontal=1;startSize=26;horizontalStack=0;resizeParent=1;resizeParentMax=0;resizeLast=0;collapsible=1;marginBottom=0;whiteSpace=wrap;html=1;" parent="1" vertex="1">
          <mxGeometry x="507" y="887" width="214" height="86" as="geometry" />
        </mxCell>
        <mxCell id="netaxYqDcQG4w5ra4QfN-36" value="+ field: type" style="text;strokeColor=none;fillColor=none;align=left;verticalAlign=top;spacingLeft=4;spacingRight=4;overflow=hidden;rotatable=0;points=[[0,0.5],[1,0.5]];portConstraint=eastwest;whiteSpace=wrap;html=1;" parent="netaxYqDcQG4w5ra4QfN-35" vertex="1">
          <mxGeometry y="26" width="214" height="26" as="geometry" />
        </mxCell>
        <mxCell id="netaxYqDcQG4w5ra4QfN-37" value="" style="line;strokeWidth=1;fillColor=none;align=left;verticalAlign=middle;spacingTop=-1;spacingLeft=3;spacingRight=3;rotatable=0;labelPosition=right;points=[];portConstraint=eastwest;strokeColor=inherit;" parent="netaxYqDcQG4w5ra4QfN-35" vertex="1">
          <mxGeometry y="52" width="214" height="8" as="geometry" />
        </mxCell>
        <mxCell id="netaxYqDcQG4w5ra4QfN-38" value="+ method(type): toHadoopFsRelation" style="text;strokeColor=none;fillColor=none;align=left;verticalAlign=top;spacingLeft=4;spacingRight=4;overflow=hidden;rotatable=0;points=[[0,0.5],[1,0.5]];portConstraint=eastwest;whiteSpace=wrap;html=1;" parent="netaxYqDcQG4w5ra4QfN-35" vertex="1">
          <mxGeometry y="60" width="214" height="26" as="geometry" />
        </mxCell>
        <mxCell id="netaxYqDcQG4w5ra4QfN-39" style="edgeStyle=orthogonalEdgeStyle;rounded=0;orthogonalLoop=1;jettySize=auto;html=1;entryX=0.5;entryY=0;entryDx=0;entryDy=0;" parent="1" source="netaxYqDcQG4w5ra4QfN-20" target="netaxYqDcQG4w5ra4QfN-31" edge="1">
          <mxGeometry relative="1" as="geometry" />
        </mxCell>
        <mxCell id="netaxYqDcQG4w5ra4QfN-40" style="edgeStyle=orthogonalEdgeStyle;rounded=0;orthogonalLoop=1;jettySize=auto;html=1;entryX=0.5;entryY=0;entryDx=0;entryDy=0;" parent="1" source="netaxYqDcQG4w5ra4QfN-20" target="netaxYqDcQG4w5ra4QfN-35" edge="1">
          <mxGeometry relative="1" as="geometry" />
        </mxCell>
        <mxCell id="dIrrSNGoWT9D_Zn7d_qB-4" style="edgeStyle=orthogonalEdgeStyle;rounded=0;orthogonalLoop=1;jettySize=auto;html=1;entryX=0;entryY=0.5;entryDx=0;entryDy=0;exitX=0.5;exitY=0;exitDx=0;exitDy=0;" edge="1" parent="1" source="dIrrSNGoWT9D_Zn7d_qB-2" target="dIrrSNGoWT9D_Zn7d_qB-3">
          <mxGeometry relative="1" as="geometry" />
        </mxCell>
        <mxCell id="dIrrSNGoWT9D_Zn7d_qB-5" value="&lt;font style=&quot;font-size: 15px;&quot;&gt;getPartitions&lt;/font&gt;" style="edgeLabel;html=1;align=center;verticalAlign=middle;resizable=0;points=[];" vertex="1" connectable="0" parent="dIrrSNGoWT9D_Zn7d_qB-4">
          <mxGeometry x="0.136" relative="1" as="geometry">
            <mxPoint y="-3" as="offset" />
          </mxGeometry>
        </mxCell>
        <mxCell id="dIrrSNGoWT9D_Zn7d_qB-18" style="edgeStyle=orthogonalEdgeStyle;rounded=0;orthogonalLoop=1;jettySize=auto;html=1;entryX=0;entryY=0.75;entryDx=0;entryDy=0;exitX=0.5;exitY=1;exitDx=0;exitDy=0;" edge="1" parent="1" source="dIrrSNGoWT9D_Zn7d_qB-2" target="dIrrSNGoWT9D_Zn7d_qB-17">
          <mxGeometry relative="1" as="geometry" />
        </mxCell>
        <mxCell id="dIrrSNGoWT9D_Zn7d_qB-19" value="&lt;font style=&quot;font-size: 15px;&quot;&gt;getFileGroups&lt;/font&gt;" style="edgeLabel;html=1;align=center;verticalAlign=middle;resizable=0;points=[];" vertex="1" connectable="0" parent="dIrrSNGoWT9D_Zn7d_qB-18">
          <mxGeometry x="0.0403" relative="1" as="geometry">
            <mxPoint x="-15" y="-4" as="offset" />
          </mxGeometry>
        </mxCell>
        <mxCell id="dIrrSNGoWT9D_Zn7d_qB-2" value="HoodieFileIndex" style="rounded=1;whiteSpace=wrap;html=1;" vertex="1" parent="1">
          <mxGeometry x="312" y="1350" width="113" height="60" as="geometry" />
        </mxCell>
        <mxCell id="dIrrSNGoWT9D_Zn7d_qB-3" value="FileSystemBackedTableMetadata" style="rounded=1;whiteSpace=wrap;html=1;" vertex="1" parent="1">
          <mxGeometry x="583" y="1175" width="201" height="62" as="geometry" />
        </mxCell>
        <mxCell id="dIrrSNGoWT9D_Zn7d_qB-10" style="edgeStyle=orthogonalEdgeStyle;rounded=0;orthogonalLoop=1;jettySize=auto;html=1;entryX=1;entryY=0.5;entryDx=0;entryDy=0;" edge="1" parent="1" source="dIrrSNGoWT9D_Zn7d_qB-6" target="dIrrSNGoWT9D_Zn7d_qB-9">
          <mxGeometry relative="1" as="geometry" />
        </mxCell>
        <mxCell id="dIrrSNGoWT9D_Zn7d_qB-11" style="edgeStyle=orthogonalEdgeStyle;rounded=0;orthogonalLoop=1;jettySize=auto;html=1;entryX=0.018;entryY=0.133;entryDx=0;entryDy=0;entryPerimeter=0;" edge="1" parent="1" source="dIrrSNGoWT9D_Zn7d_qB-6" target="dIrrSNGoWT9D_Zn7d_qB-2">
          <mxGeometry relative="1" as="geometry" />
        </mxCell>
        <mxCell id="dIrrSNGoWT9D_Zn7d_qB-6" value="COW" style="rounded=1;whiteSpace=wrap;html=1;" vertex="1" parent="1">
          <mxGeometry x="116" y="1283" width="120" height="60" as="geometry" />
        </mxCell>
        <mxCell id="dIrrSNGoWT9D_Zn7d_qB-12" style="edgeStyle=orthogonalEdgeStyle;rounded=0;orthogonalLoop=1;jettySize=auto;html=1;entryX=0;entryY=1;entryDx=0;entryDy=0;" edge="1" parent="1" source="dIrrSNGoWT9D_Zn7d_qB-7" target="dIrrSNGoWT9D_Zn7d_qB-2">
          <mxGeometry relative="1" as="geometry" />
        </mxCell>
        <mxCell id="dIrrSNGoWT9D_Zn7d_qB-16" style="edgeStyle=orthogonalEdgeStyle;rounded=0;orthogonalLoop=1;jettySize=auto;html=1;entryX=1;entryY=0.5;entryDx=0;entryDy=0;" edge="1" parent="1" source="dIrrSNGoWT9D_Zn7d_qB-7" target="dIrrSNGoWT9D_Zn7d_qB-15">
          <mxGeometry relative="1" as="geometry" />
        </mxCell>
        <mxCell id="dIrrSNGoWT9D_Zn7d_qB-7" value="MOR" style="rounded=1;whiteSpace=wrap;html=1;" vertex="1" parent="1">
          <mxGeometry x="122" y="1439" width="120" height="60" as="geometry" />
        </mxCell>
        <mxCell id="dIrrSNGoWT9D_Zn7d_qB-14" style="edgeStyle=orthogonalEdgeStyle;rounded=0;orthogonalLoop=1;jettySize=auto;html=1;" edge="1" parent="1" source="dIrrSNGoWT9D_Zn7d_qB-9" target="dIrrSNGoWT9D_Zn7d_qB-13">
          <mxGeometry relative="1" as="geometry" />
        </mxCell>
        <mxCell id="dIrrSNGoWT9D_Zn7d_qB-9" value="HoodieROTablePathFilter" style="rounded=1;whiteSpace=wrap;html=1;" vertex="1" parent="1">
          <mxGeometry x="-125" y="1281" width="161" height="64" as="geometry" />
        </mxCell>
        <mxCell id="dIrrSNGoWT9D_Zn7d_qB-13" value="HoodieBaseFile.getPath" style="rounded=1;whiteSpace=wrap;html=1;" vertex="1" parent="1">
          <mxGeometry x="-316" y="1281" width="151" height="62" as="geometry" />
        </mxCell>
        <mxCell id="dIrrSNGoWT9D_Zn7d_qB-15" value="file.getFileStatus.getPath" style="rounded=1;whiteSpace=wrap;html=1;" vertex="1" parent="1">
          <mxGeometry x="-114" y="1436.5" width="150" height="65" as="geometry" />
        </mxCell>
        <mxCell id="dIrrSNGoWT9D_Zn7d_qB-17" value="HoodieTableFileSystemView" style="rounded=1;whiteSpace=wrap;html=1;" vertex="1" parent="1">
          <mxGeometry x="593" y="1414" width="173" height="76" as="geometry" />
        </mxCell>
      </root>
    </mxGraphModel>
  </diagram>
</mxfile>
